<svg xmlns="http://www.w3.org/2000/svg" width="15" height="15" viewBox="0 0 15 15"><defs><style>.a{fill:#1592e6;}</style></defs><g transform="translate(0 0)"><path class="a" d="M5.561,10.884l7.5-7.5a1.25,1.25,0,0,0,0-1.767L11.811.366a1.25,1.25,0,0,0-1.768,0l-7.5,7.5a1.25,1.25,0,0,0-.235.325L1.293,12.134l3.943-1.009A1.25,1.25,0,0,0,5.561,10.884Z" transform="translate(0.323 0)"/><path class="a" d="M14.375,11H.625a.625.625,0,0,0,0,1.25h13.75a.625.625,0,0,0,0-1.25Z" transform="translate(0 2.75)"/></g></svg>